<svg width="54" height="51" viewBox="0 0 54 51" fill="none" xmlns="http://www.w3.org/2000/svg">
<path d="M18.159 40.0228C15.1754 40.0228 12.7529 42.4453 12.7529 45.4289C12.7529 48.4124 15.1754 50.8317 18.159 50.8317C21.1425 50.8317 23.5651 48.4092 23.5651 45.4257C23.5651 42.4421 21.1425 40.0228 18.159 40.0228Z" fill="#FFB5A9"/>
<path d="M44.1028 40.0228C41.1193 40.0228 38.6968 42.4453 38.6968 45.4289C38.6968 48.4124 41.1193 50.8317 44.1028 50.8317C47.0864 50.8317 49.5089 48.4092 49.5089 45.4257C49.5089 42.4421 47.0864 40.0228 44.1028 40.0228Z" fill="#FFB5A9"/>
<path d="M34.3738 22.1864V44.8874C34.3738 45.7727 33.6377 46.5089 32.7524 46.5089H25.6178C25.6599 46.1619 25.7248 45.7954 25.7248 45.429C25.7248 41.2552 22.3326 37.8598 18.1589 37.8598C13.9852 37.8598 10.593 41.2552 10.593 45.4257C10.593 45.7922 10.6579 46.1619 10.7 46.5056H7.88834C7.003 46.5056 6.26685 45.7695 6.26685 44.8841V31.3738H26.2664C29.5515 31.3738 32.2108 28.7146 32.2108 25.4294V20.5649H32.7524C33.6377 20.5649 34.3738 21.2979 34.3738 22.1864V22.1864Z" fill="#FD907E"/>
<path d="M43.5613 28.2378H38.1552C37.2601 28.2378 36.5337 28.9642 36.5337 29.8593V44.8841C36.5337 44.9489 36.5629 45.0008 36.5694 45.0657C36.7639 41.0638 40.0556 37.8597 44.1028 37.8597C48.2733 37.8597 51.6687 41.2552 51.6687 45.4256C51.6687 45.7953 51.6104 46.1521 51.5585 46.5056H52.2071C53.1021 46.5056 53.8286 45.7791 53.8286 44.8841V38.5083C53.8318 32.8461 49.2235 28.2378 43.5613 28.2378V28.2378Z" fill="#FD907E"/>
<path d="M27.9699 20.8545C27.7987 20.6364 27.5373 20.5084 27.2598 20.5084H2.62834C2.35079 20.5084 2.08947 20.6364 1.91825 20.8545C1.74704 21.0743 1.68756 21.3591 1.75425 21.6276L2.95635 26.4342C3.05728 26.8361 3.41773 27.1173 3.83045 27.1173H26.0577C26.4704 27.1173 26.8308 26.8361 26.9318 26.4342L28.1339 21.6276C28.2006 21.3591 28.1393 21.0725 27.9699 20.8545V20.8545Z" fill="#FD907E"/>
<path d="M14.9431 8.4929C14.2798 8.4929 13.741 7.95583 13.741 7.29079V4.88838C13.741 4.22515 14.2798 3.68628 14.9431 3.68628C15.6063 3.68628 16.1452 4.22335 16.1452 4.88838V7.29079C16.1452 7.95583 15.6063 8.4929 14.9431 8.4929Z" fill="#FFC1B7"/>
<path d="M14.9432 5.48853C16.27 5.48853 17.3456 4.41294 17.3456 3.08612C17.3456 1.75931 16.27 0.683716 14.9432 0.683716C13.6164 0.683716 12.5408 1.75931 12.5408 3.08612C12.5408 4.41294 13.6164 5.48853 14.9432 5.48853Z" fill="#FFC1B7"/>
<path d="M15.0278 6.69056C8.41893 6.61847 2.68775 11.8324 1.78662 18.4052H27.9554C27.0669 11.9531 21.5394 6.76265 15.0278 6.69056ZM23.0172 17.5888C22.5252 17.5888 22.1161 17.1797 22.1287 16.6877C22.1521 13.8635 19.8939 11.5458 17.0698 11.5206C16.5777 11.508 16.1812 11.1115 16.1812 10.6069C16.1939 10.1148 16.6012 9.70573 17.095 9.71835C20.9032 9.7544 23.967 12.8903 23.9309 16.6985C23.9183 17.2031 23.5092 17.5996 23.0172 17.5888Z" fill="#FFC1B7"/>
<path d="M28.1592 20.2075H1.72725C1.06222 20.2075 0.525146 20.7446 0.525146 21.4096C0.525146 22.0729 1.06402 22.6117 1.72725 22.6117H28.161C28.8242 22.6117 29.3631 22.0747 29.3631 21.4096C29.3613 20.7446 28.8242 20.2075 28.1592 20.2075Z" fill="#FD907E"/>
</svg>
