<svg width="155" height="30" fill="none" xmlns="http://www.w3.org/2000/svg"><path d="M11.1 9.02L8.55 11.3C7.64 10.03 6.73 9.4 5.8 9.4c-.4-.02-.8.1-1.12.36a1.06 1.06 0 00-.43.82c0 .32.11.62.3.87.8.84 1.64 1.62 2.55 2.33 1.32 1.1 2.12 1.8 2.4 2.1a7.24 7.24 0 011.49 2.02c.3.67.44 1.4.44 2.13a4.86 4.86 0 01-1.55 3.69 5.64 5.64 0 01-4.03 1.46 6 6 0 01-3.38-.95 7.52 7.52 0 01-2.47-3l2.9-1.75c.88 1.6 1.89 2.41 3.03 2.41.54.02 1.08-.17 1.5-.52a1.54 1.54 0 00.6-1.2 2.07 2.07 0 00-.46-1.23c-.6-.7-1.28-1.34-2.01-1.9a20.31 20.31 0 01-3.84-3.73 4.75 4.75 0 01-.87-2.63A4.3 4.3 0 012.3 7.45a5 5 0 013.56-1.36c.9 0 1.79.22 2.6.63a9.46 9.46 0 012.66 2.3zm2.67 2.27h3.41v6.47a9 9 0 00.26 2.63c.15.46.44.86.83 1.14.42.28.92.42 1.42.4.5.02 1-.12 1.43-.4.41-.28.72-.7.88-1.17.18-.82.25-1.65.2-2.49v-6.59h3.38v5.7c0 2.35-.19 3.96-.56 4.82-.4 1-1.1 1.84-2 2.43-1.01.6-2.18.9-3.36.85a5.96 5.96 0 01-3.57-1 5.22 5.22 0 01-1.93-2.75 16.71 16.71 0 01-.39-4.45v-5.6zm22.94 1.87l-2.08 2.1a3.53 3.53 0 00-2.31-1.27c-.32-.02-.63.07-.9.24a.72.72 0 00-.11 1.1c.3.26.64.47 1 .63l1.24.61a7.28 7.28 0 012.68 1.97 4.1 4.1 0 01-.58 5.34 5.04 5.04 0 01-3.53 1.2 5.6 5.6 0 01-4.7-2.3l2.08-2.26c.39.45.86.83 1.39 1.12.43.25.91.4 1.41.42.39.02.77-.1 1.08-.32a.93.93 0 00.4-.74c0-.52-.48-1.03-1.46-1.52l-1.14-.57c-2.18-1.1-3.26-2.47-3.26-4.12a3.57 3.57 0 011.23-2.72 4.46 4.46 0 013.14-1.13 5.45 5.45 0 014.42 2.22zm2.65-7.07h3.35v6.55c.59-.52 1.26-.95 1.98-1.27a5.13 5.13 0 013.86-.09c.58.24 1.1.6 1.54 1.04a4.84 4.84 0 011.18 3.53v8.88h-3.33v-5.9c.04-1.05-.03-2.11-.22-3.16a2.2 2.2 0 00-.76-1.23 2.13 2.13 0 00-1.33-.41 2.5 2.5 0 00-1.76.68 3.6 3.6 0 00-1.02 1.85 15.3 15.3 0 00-.14 2.77v5.4h-3.35V6.1zm16.41-.34a2.06 2.06 0 011.52.64 2.21 2.21 0 01-.68 3.57c-.25.11-.53.17-.81.16a2.07 2.07 0 01-1.54-.65 2.17 2.17 0 01-.63-1.57 2.15 2.15 0 012.14-2.15zm-1.68 5.54h3.37v13.44h-3.37V11.3z" fill="#fff"/><path d="M60.83 6.55h3.32l7.78 11.96V6.55h3.46v18.18h-3.33l-7.77-11.92v11.92h-3.46V6.55z" fill="#92C020"/><path d="M79.28 24.73V6.55h2.85c1.22-.04 2.44.07 3.64.32 1.01.25 1.93.8 2.6 1.6.64.79.98 1.77.96 2.78a4.03 4.03 0 01-1.87 3.47 5.69 5.69 0 012.43 1.95c.52.82.79 1.78.76 2.76.01.99-.26 1.96-.79 2.8-.49.8-1.2 1.45-2.04 1.88a7.83 7.83 0 01-3.45.62h-5.1zm3.46-14.88v3.83h.75c.67.05 1.34-.13 1.88-.53a1.81 1.81 0 00.61-1.45 1.7 1.7 0 00-.58-1.35 2.67 2.67 0 00-1.77-.5h-.9zm0 6.92v4.66h.86c1 .1 2-.1 2.9-.54a1.83 1.83 0 00.76-1.58 2.22 2.22 0 00-.88-1.86 4.85 4.85 0 00-2.93-.68h-.71zm20.37-5.48h3.38v13.44h-3.38v-1.42a5.54 5.54 0 01-4.13 1.77 5.98 5.98 0 01-4.5-2.02 7.05 7.05 0 01-1.9-5.03 7.22 7.22 0 011.83-5.1 5.86 5.86 0 014.47-2 5.67 5.67 0 014.23 1.84v-1.48zm-3.54 2.76a3.4 3.4 0 00-2.6 1.1c-.7.78-1.07 1.8-1.03 2.85a4.03 4.03 0 001.05 2.86 3.41 3.41 0 002.6 1.13 3.48 3.48 0 002.63-1.1 4.05 4.05 0 001.04-2.9 3.95 3.95 0 00-1.05-2.85 3.53 3.53 0 00-2.64-1.09zm19.9-2.76h3.36V22.8c0 2.28-.45 3.95-1.37 5.02-1.22 1.45-3.07 2.18-5.54 2.18a9.7 9.7 0 01-3.33-.5 5.79 5.79 0 01-3.64-3.78h3.72c.34.39.78.68 1.27.86.6.2 1.22.3 1.84.29.75.03 1.5-.11 2.19-.42.5-.23.9-.61 1.17-1.09.27-.73.39-1.52.33-2.3-.52.55-1.16.99-1.86 1.28-.7.27-1.46.4-2.21.4a6.08 6.08 0 01-4.57-1.96 7.58 7.58 0 01.1-10.09 5.9 5.9 0 016.48-1.33c.76.34 1.47.82 2.06 1.4V11.3zm-3.5 2.8a3.5 3.5 0 00-3.41 2.3c-.18.47-.27.96-.25 1.46a3.74 3.74 0 002.28 3.57c.46.18.95.27 1.45.26a3.45 3.45 0 003.38-2.33c.17-.47.25-.97.23-1.48a3.75 3.75 0 00-1.03-2.73 3.54 3.54 0 00-2.64-1.05zm23.4 4.9h-10.83c.12.88.56 1.7 1.25 2.27.74.59 1.66.89 2.6.85a4.5 4.5 0 003.25-1.32l2.84 1.33a6.7 6.7 0 01-2.54 2.23c-1.1.51-2.31.76-3.53.73a6.95 6.95 0 01-5.15-2 6.8 6.8 0 01-1.98-5 7.01 7.01 0 014.25-6.65 6.66 6.66 0 012.7-.5 6.9 6.9 0 015.16 2.04 7.35 7.35 0 012 5.37l-.02.64zM136 16.32a3.38 3.38 0 00-1.32-1.83 3.82 3.82 0 00-2.28-.7 4.04 4.04 0 00-2.48.78 4.4 4.4 0 00-1.24 1.75H136zm18.75-3.17l-2.09 2.1a3.53 3.53 0 00-2.3-1.27c-.32-.02-.63.07-.9.24a.72.72 0 00-.11 1.1c.3.26.64.47 1 .63l1.24.61a7.27 7.27 0 012.68 1.97 4.1 4.1 0 01-.59 5.34 5.03 5.03 0 01-3.52 1.2 5.6 5.6 0 01-4.7-2.3l2.08-2.26c.39.45.86.83 1.39 1.12.43.25.91.4 1.41.42.39.02.77-.1 1.08-.32a.94.94 0 00.4-.74c0-.52-.48-1.03-1.47-1.52l-1.13-.57c-2.18-1.1-3.26-2.47-3.26-4.12a3.58 3.58 0 011.23-2.72 4.46 4.46 0 013.14-1.13 5.46 5.46 0 014.42 2.22zM140.33.07l4.2 24.95-.92.15L138.08.45l2.25-.38z" fill="#fff"/><path d="M144.3 0l-3.57 25.04.92.13L146.53.32 144.3 0z" fill="#fff"/></svg>
