<svg xmlns="http://www.w3.org/2000/svg" width="291.351" height="134.829"><g fill="white"><path d="M266.135 29.823l2.501-7.08h12.802c1.193 0 2.007-.666 2.44-2 .435-1.332.652-1.763.652-4.98v-.552c0-1.287-.28-2.321-.84-3.102-.561-.782-1.24-1.173-2.035-1.173h-9.873c-2.494 0-3.742-3.224-3.742-5.981 0-1.196.208-2.2.624-3.011.416-.812.84-1.219 1.274-1.219h.217c.29 0 .445.132.657.46.504.78.841 1.828 1.459 1.828h11.282c1.52 0 2.604.536 3.255 1.609.651 1.072.977 2.37.977 4.7 0 3.31-.174 6.016-.53 8.119-.19 1.123-1.47 5.302-.829 5.302h4.125l-2.826 7.08h-21.59zM257.688 26.605l-.089-8.053v-2.206c0-.368.2-.82.028-1.264-.197-.506.31-4.147.01-4.148l-11.64-.058c-1.77-.012-2.82-.4-3.661-.678-2.385-.664-2.302-8.564 1.013-9.472.401-.11 1.476.227 1.602.582l.289.82c.19.191.552.713 1.085.874h12.18c3.02 0 3.598.307 3.55 1.837l-.172 5.576h-1.085c-.55 0-.576 1.236-.52 1.794l.187 1.816.344 2.137 1.104 6.626.173 1.874c.197 2.137-2.005 5.299-3.391 5.299-.444 0-1.503.063-1.628-.414l.475-1.379c.168-.487.146-1.043.146-1.562M240.803 27.11v-7.252c0-1.41.08-2.74.923-3.171 4.016-2.048 3.292-.025 3.28 1.035l-.08 7.136v.276c0 1.164-.308 2.168-.922 3.01-.615.843-1.16 1.372-2.1 1.586-2.038 0-1.341-.784-1.1-2.62M211.57 28.898c-.184-1.573-.285-3.626-.176-5.15.233-3.257.422-5.32.59-8.594.099-1.905.558-3.662.5-5.823-.506 0-.846-.274-1.03-.322a3.552 3.552 0 01-1.9-1.196c-.144-.337-.433-.828-.433-1.517V5.01c0-1.823.652-2.246 1.193-3.691.279-.745 1.232-.907 1.738-.907.326 0 .48.182.651.46 2.638 4.31 6.969-1.806 4.5 8.872-3.195 1.189-2.315 9.107-1.497 11.535l2.597-.115 4.457-11.041c0-.556.44-.743-.244-.92l-1.248-.321c-.36-.094-.714-.386-.976-.92-.391-.796.556-4.945.925-5.676.524-1.042 1.168-1.757 1.715-1.816.143-.017 1.061.49 1.254.858.494.939.167.553 1.44.853 1.289.303 1.384.615 1.726 1.254.343.64.931 1.61.428 3.228l-1.03 3.31c-.797-.338.57-.103-.044-.103-.832 0-1.23.16-1.353.46l-4.089 10.052c.074.761-.24.91.296.955l4.05.344c1.86.158 2.199-.721 2.296-.895l3.688-6.62c.979-1.755 2.416-2.609 1.79-4.871l-1.464-.368c-.826-.208-.864-.445-1.265-.874-.577-.615-.814-1.562-.814-2.757 0-1.349.262-2.513.786-3.494 1.17-2.186 3.885-2.627 4.534.046.439 1.806 2.61-.415 2.666 3.838a10.5 10.5 0 01-.19 2.16c-.126.644-.332 1.183-.515 1.655-.74 1.905-2.796 4.455-3.14 5.953l-2.2 9.56c-.284 1.233-1.294 2.226-1.743 2.853-.888 1.242-3.038 1.535-4.663 1.482l-13.807-.45zM192.526 29.389l2.753-6.327c.291-.67.725-1.01 1.627-1.057 4.04-.212 5.174.244 5.585-.178.918-.942-2.66-11.608-4.325-11.608h-2.6c-1.88 0-2.547-1.916-2.547-3.84v-.781c0-.92.118-1.894.323-2.517 2.036-6.188 5.47-.505 5.064-.563-.965-.14 2.76.05 3.393.723.632.674.978 1.517.95 2.528l-.052 1.759-.38 1.425c-.103.6-.133 1.88.59 3.31 1.056 2.088 1.978 4.346 2.824 5.375 1.932 2.35 2.245 2.898 3.079 5.804.122.425.181.796.217 1.103.036.306.054.797.054 1.47v.736l-.104 1.567c-.056.826.187.87-.686.87h-.696c-.698 0-.514-.187-.777-.806-2.103-4.936-4.16-.595-4.442.957l-9.85.05zM167.241 27.154l.217-10.527c.075-3.615-.389-5.023 2.287-6.524h-.705c-2.567 0-1.941-2.446-2.125-5.02-.463-6.518 1.568-2.775 5.049-2.775h1.247l11.637-.08c2.315-.016 3.493 1.178 3.472 2.954l-.058 4.748h-.922c-.506.245-1.006.546-1.112 1.034-.812 3.749 4.394 13.594.383 17.201-.886.797-1.98 1.196-3.282 1.196-.542 0-.831-.2-.868-.598.217-.368.38-.667.489-.897.108-.23.253-.574.434-1.034.144-.551.235-.888.27-1.011v-.735l.019-.644-.087-8.007v-1.012c0-1.014 1.388-5.493-1.508-5.493h-8.548c-1.41 0-2.128 1.165-2.116 3.493l.058 11.02c.008 1.53-.416 2.757-1.248 3.676-.831.92-1.916 1.38-3.254 1.38-.217 0-.38-.047-.488-.138l-.11-.184a1.85 1.85 0 00.082-.253c.018-.077.136-.292.353-.644.217-.352.362-.728.434-1.126M133.666 29.154l1.573-6.16h3.038c.434 0 .814-.23 1.139-.689.325-.46.488-.98.488-1.562v-.736l-.705-1.977v-1.103c0-5.045 2.414-5.383 1.092-6.03-.903-.44-.968.072-1.602-.574-1.004-1.022.875-10.104 3.933-9.54.217.03.389.26.515.689.127.428.299.727.516.896.216.168.397.283.542.345l1.139.138 10.811-.173c3.58-.058 5.393 3.535 5.486 7.61l.373 16.476c.011.52-.299 1.065-.896 1.632-.596.567-1.437.942-2.522 1.126l.115-16.108c.005-.736-.28-1.387-.84-1.954a2.756 2.756 0 00-2.035-.85h-8.158c-4.638 0-4.889.848-4.889 4.892v.92l.163.781.922 3.356c.126.455.199.896.271 1.31.072.413.109.865.109 1.356 0 1.593-.38 2.98-1.14 4.16-.759 1.18-1.5 1.77-2.223 1.77h-7.215zM53.026 23.406c-.058-.723.349-4.742.447-7.967a127.4 127.4 0 01.136-2.742c.132-2.031.46-2.207-1.705-2.239l-10.244-.15c-1.501-.023-3.363.053-4.169-.415-.806-.47-1.21-1.284-1.21-2.441 0-3.694.412-6.414 1.804-6.39.294 0 1.608-.012 1.72.333l.342 1.04c.165.506 1.31.514 2.519.508l13.92-.057c.66 0 1.205.246 1.705.657.49.403.77.846.77 1.408 0 1.448.463 1.565.462 3.013 0 .928.224 1.06-.572 1.61l-.501.349c-.417.29-1.02.352-1.484 1.08-.196.305-.349.704-.495 1.173-.147.47.018.99.073 1.55l.055.563.634 10.526v.563c0 1.314-.495 2.41-1.484 3.286-.99.876-1.364.91-2.647.91-.44 0-.714-.22-.824-.658.537-1.837.854-3.611.748-5.51M5.49 44.94l-.337-26.582c-.042-3.352.83-5.445-.244-6.712-2.802-3.308-3.813.183-4.187-5.795-.086-1.374.167-2.48.5-3.31C2.28-.084 4.162.925 5.65 2.228c.78.681-.034 1.76.858 1.76 3.194 0 3.077 2.52 2.668 5.087-.7 4.389.603 7.977.823 11.287 1.145-.363 10.05-9.1 6.2-10.358-1.114-.364-1.524-8.106 1.016-9.193.978-.418 1.438.973 2.082 2.218.441.852 1.072.49 2.04.754 1.048.286 2.205 2.505 2.205 3.646 0 .47-.017.822-.05 1.056-.033.235-.18.59-.35 1.103-.132.397-.262.79-.426 1.174-.834 1.963-2.479 2.03-4.845 3.703-2.366 1.674-4.956 4.831-6.684 7.188C8.682 25.067 9.72 36.757 9.69 41.698l-.01 1.315c-.01 1.877-1.566 5.355-3.392 5.355-.867 0-1.301-.345-1.301-1.033 0-.282.153-.636.25-1.127l.25-1.268zM29.401.441c.487.46.642 1.45.346 2.203L28.11 6.8c-.296.753-.936.993-1.422.535-.487-.46-.642-1.45-.346-2.203L27.98.976c.296-.753.936-.993 1.422-.535M110.623 26.208l-.09-8.053V15.95c0-.368.204-.82.027-1.264-.201-.505.317-4.147.01-4.149l-11.893-.057c-1.81-.013-2.881-.4-3.74-.678-2.438-.664-2.353-8.564 1.035-9.473.41-.11 1.508.228 1.636.583l.296.82c.194.19.563.712 1.108.873H111.458c3.084 0 3.676.308 3.627 1.838l-.176 5.576H113.8c-.561 0-.589 1.236-.53 1.794l.19 1.816.352 2.137 1.127 6.626.177 1.874c.201 2.137-2.048 5.299-3.465 5.299-.453 0-1.535.063-1.663-.414l.486-1.379c.171-.488.149-1.044.149-1.563M93.371 26.713c0-.674-.151-5.544-.189-7.956-.012-.804-.012-1.335.01-1.346 4.104-2.047 3.281-.023 3.352 1.035l.416 6.264v.276c0 1.164-.314 2.168-.942 3.01-.628.843-.562 1.123-1.523 1.337-2.08 0-1.37-.784-1.124-2.62M63.797 29.766l2.5-7.08H79.1c1.194 0 2.007-.667 2.441-2 .434-1.332.65-2.261.65-5.479v-.552c0-1.286-.28-2.32-.84-3.102-.56-.781-1.239-1.172-2.034-1.172h-9.872c-2.495 0-3.743-3.224-3.743-5.982 0-1.195.208-2.199.624-3.011.415-.812.84-1.218 1.274-1.218h.217c.29 0 .445.132.657.46.504.78.84 1.828 1.459 1.828h11.283c1.518 0 2.604.536 3.254 1.608.65 1.073.977 2.37.977 4.7 0 3.31-.174 6.016-.53 8.119-.189 1.124-1.47 5.801-.829 5.801h4.873l-1.87 4.683-.957 2.397H63.797zM34.136.441c.487.46.642 1.45.346 2.203L32.846 6.8c-.296.753-.936.993-1.423.535-.486-.46-.641-1.45-.345-2.203L32.714.976c.296-.753.936-.993 1.422-.535M138.218 72.574c-.466-3.82-1.075-8.484-.871-12.245.086-1.601.491-3.078.44-4.894-.446 0-.746-.23-.91-.27-.666-.166-1.227-.49-1.674-1.005-.127-.284-.383-.696-.383-1.275v-1.082c0-1.532.576-1.887 1.053-3.102.245-.625 1.087-.761 1.533-.761.287 0 .424.152.574.386 2.328 3.622 6.148-1.518 3.97 7.456-2.819 1-2.291 8.896-1.569 10.936.764-.03 1.527-.063 2.29-.096 1.51-2.772 2.524-5.917 4.034-8.69l.272-1.707c0-.467.139-.748-.464-.896l-1.101-.271c-.318-.079-.63-.325-.861-.773-.345-.669.491-4.156.815-4.77.463-.876 1.032-1.477 1.514-1.527.126-.012.936.413 1.106.722.436.788.147.464 1.271.716 1.136.255 1.22.517 1.522 1.054.302.538.822 1.353.377 2.713l-.909 2.781c-.702-.283.504-.086-.038-.086-.734 0-1.052.149-1.193.386-.4.675-4.18 10.519-2.229 10.493 1.305-.016 9.5.532 9.805-.783l1.903-8.223c.329-1.42-1.13-2.321-2.569-2.666-.728-.174-.762-.373-1.116-.733-.508-.518-.718-1.314-.718-2.318 0-1.134.232-2.113.694-2.936 1.031-1.838 3.427-2.209 4 .039.387 1.517 2.301-.35 2.351 3.225a8.407 8.407 0 01-.167 1.816c-.112.54-.293.993-.455 1.39-1.39 3.417-1.162 9.507-2.416 13.759-.302 1.024-.896 1.714-1.292 2.24-.784 1.044-5.288.72-6.722.75l-11.867.248zM199.786 55.31l-2.317-.192c-.614-.052-.452-.261-.932-.77-1.02-1.081-1.36-5.99.265-6.169 1.864.402 1.468 1.001 2.424.974l2.275-.064c.896-.025 1.603.426 2.184 1.231.567.785.883 1.796.883 3.078 0 2.148.24 4.887-.316 6.94-.197.726-4.58.866-3.058-2.758.029-.027.078-.174.148-.443.07-.27.144-.466.147-.596.024-1.205-.61-1.23-1.703-1.23M189.863 68.343l.582-10.346c.11-1.947-.814-2.517-2.437-2.54l-8.765-.123c-1.119-.016-1.94-.257-2.458-.77-.517-.512-.557-1.86-.589-2.963-.165-5.846 1.327-2.783 3.846-2.783h9.286c.449 0 .904.109 1.366.327.462.218.949.554 1.407 1.058.523.574.817 1.738.86 2.437l.169 2.693c.332 5.315.452 9.195.168 14.554-.047.87-.217 1.565-.651 2.078a2.086 2.086 0 01-1.226.721c-.387.075-.96.374-1.213-.27-.419-1.07-.382-3.43-.345-4.073M169.403 72.011l.45-13.955c.01-.334-.133-.824-.4-1.221-.265-.398-.91-.51-1.191-.51h-1.593c-.644 0-1.26-.256-1.807-.809-.518-.525-.756-3.016-.756-3.965 0-1.051.165-1.97.497-2.75.333-.784.643-.879 1.057-.93.252.077.59.21.796.525l.316.487c.134.206.472.286 1.163.347l1.462.128c.78.069 1.414.282 1.89.846.476.564.694 1.334.715 2.309l.378 17.401v.192c0 1.728-.762 2.7-2.284 2.917-.99.14-.722-.108-.693-1.012M127.034 55.884h-9.328c-.756 0-1.892-.41-2.508-1.232-.616-.82-.629-2.963-.796-4.08-.548-3.649 2.399-10.743-.302-12.252-.46-.257-.755-.577-.755-1.27 0-1.923.377-2.885 1.134-2.885.308.077 1.153-.013 1.251.372.098.384.165.977.481.949l.641-.056c1.005-.088.702.728 1 1.95.25 1.028-.372 3.12-.54 5.217-.19 2.376.062 4.76.252 5.608.066.296.707.366 1.575.366h9.202c1.71 0 2.85.329 3.404 1 .974 1.18 1.257 9.349.858 10.438-.39 1.062-2.04 2.626-3.45 3.833l-1.77 1.518-1.05.847c-.31.249-.506.64-.672 1.077a6.64 6.64 0 00-.19.635c-.07.269-.17.493-.147.673l.127.962.125.654c.083.428-.21.879-.63 1.327-.42.45-.882.674-1.386.674-.505 0-1.002-.276-1.492-.828-.49-.551-.735-1.224-.735-2.02 0-.846.385-1.718 1.155-2.616.77-.898 2.219-1.617 3.677-3l1.986-1.886c1.106-1.05 1.873-2.032 1.527-3.398-.609-2.408.166-2.577-2.644-2.577M94.31 73.028c-.335 0-.686-.155-1.05-.462-.364-.307-.544-.667-.546-1.077l-.06-9.867c-.014-2.328 1.586-3.186 1.618-4.658.014-.669-.72-2.1-.995-3.857l-.21-1.346v-1.347c0-1.835.577-3.605 2.92-2.386.551.287.59.542.798 1.078.127.326.532.461 1.093.461h9.272c2.332 0 3.396 2.128 3.436 4.846l.252 17.076c.005.333-.176.667-.525 1-.35.333-.722.539-1.114.539H94.311zm3.951-6.16h8.224c.504 0 .508-.218.956-.654.448-.436.672-.923.672-1.461v-.155l-.403-5.747c-.093-1.33-1.648-2.615-2.95-2.598l-4.38.059c-1.697.022-4.303 1.295-4.303 3.257v5.452c0 .487.217.918.65 1.29.435.37.946.557 1.534.557M178.18 84.353c-.417 1.137-.436 2.39-.496 3.6-.065 1.282-.12 2.59.124 3.85.218 1.132.596 2.273 1.241 3.228.51.755 1.35 1.238 2.111 1.738.696.458 1.443.861 2.235 1.118.575.186 3.433.768 3.85.124.338-.522.286-1.396-.125-1.863-2.871-3.265-5.327-7.586-7.326-11.299a1.322 1.322 0 00-.745-.62c-.28-.087-.768-.151-.87.123M175.392 86.824c-.726-.803-2.11 1.507-2.551 2.495-1.392 3.123-4.018 4.759-5.215 7.699-.11.27-.411.812-.124.87 3.336.667 7.957-4.233 8.319-6.458.243-1.49.442-3.642-.429-4.606M182.278 85.843c.946 2.12 6.435 4.88 8.443 5.96.601.323 1.306.458 1.987.497.789.045 1.616.02 2.36-.249.668-.243 1.367-.634 1.737-1.242.28-.46.423-1.282 0-1.614-1.884-1.477-15.223-4.912-14.527-3.352M269.047 66.332c-.958-.399-1.948-.661-2.779-1.22a290.931 290.931 0 00-5.22-3.425c-1.05-.675-1.896-1.517-3.147-2.18-.172.303-.443.417-.533.512a2.46 2.46 0 01-1.324.75c-.241-.023-.619-.013-1.011-.231l-.733-.416c-1.038-.588-1.058-1.115-1.698-1.905-.33-.408-.098-1.03.073-1.332.11-.195.267-.229.483-.24 3.35-.186 1.333-4.75 6.579.174-.407 2.295 4.402 4.326 6.062 4.62l.815-1.588-4.778-6.232c-.316-.179-.273-.502-.606-.15l-.606.642c-.176.185-.462.302-.855.287-.586-.024-2.628-1.93-2.92-2.387-.415-.65-.604-1.266-.452-1.612.04-.09.64-.476.914-.472.702.012.371.078.974-.586.61-.673.82-.63 1.3-.627.48 0 1.231-.037 1.982.787l1.536 1.685c-.462.367.135-.375-.073-.012-.282.497-.327.787-.197.957l4.34 5.691c.458.202.436.438.644.132l1.569-2.31c.72-1.06.335-1.548.268-1.662l-2.519-4.343c-.669-1.152-.667-2.287-2.168-2.644l-.706.757c-.399.427-.546.372-.927.474-.546.146-1.166-.017-1.847-.404-.767-.436-1.342-.969-1.722-1.599-.85-1.404-.18-3.17 1.563-2.695 1.177.32.648-1.694 3.09-.355.456.252.842.528 1.165.812.324.283.56.58.768.842.834 1.057 1.612 3.086 2.326 3.8l4.646 4.654c.588.588.818 1.265 1.023 1.736.406.933-.186 2.295-.738 3.267l-4.56 8.043zM252.366 68.426l-4.886 5.38c-.396.436-1.228.876-2.024.802-.796-.075-2.038-1.19-2.77-1.679-2.391-1.595-4.94-7.01-7.224-6.244-.389.13-.729.134-1.128-.229-1.11-1.007-1.466-1.729-1.07-2.166.206-.137.597-.671.87-.526.273.145.61.378.8.22l.836-.7c.603-.503.788-.022 1.648.446 1.547.841 4.45 5.505 5.56 6.136.205.118.58-.216 1.036-.717l4.82-5.307c.895-.985 1.681-1.47 2.36-1.44 1.19.056 6.615 4.557 7.035 5.357.408.782.52 1.85.176 3.529l-.39 1.9-.063 1.05c-.018.309.104.627.27.952.057.114.148.26.266.442.12.18.196.356.312.437l.62.431.444.27c.29.176.396.581.435 1.059.039.477-.074.861-.338 1.152-.264.29-.684.433-1.258.427-.575 0-1.092-.217-1.55-.634-.488-.443-.79-1.122-.904-2.037-.114-.914-.013-2.14.195-3.692l.343-2.563c.158-1.177-.19-2.144-1.16-2.66-1.707-.91-1.79-1.016-3.261.604M207.977 121.92l.937-3.557c.296-1.125.646-1.941.051-2.888-.42-.669-1.119-1.06-2-1.424-2.646-1.092-3.54-3.389-6.123-5.405-.254-.199-.846-1.047-1.345-.96l-2.49.43c-1.18.205-2.08-3.11-2.163-4.191-.026-.336.01-1.296.447-1.333 1.375-.855 4.938-3.04 6.434-.66.696 1.11 1.592 2.552.917 3.782-.38.692-.852.963-.55 1.628l.325.612c.402.64.997 1.19 1.827 1.533.67.277 7.328 3.995 7.521 3.787 1.156-1.252 1.381-2.342 1.385-4.108.038-17.03-2.214-3.995-6.28-8.617-.091-.103-.167-.239-.252-.374-.665-1.06-1.054-2.05-1.165-2.969-.113-.92.058-1.64.51-2.156.196-.123.69-.544.9-.317l.55.597c.378.412 1.543.727 2.54-.13 1.714-1.472 4.975-2.154 4.851 2.877l-.086 3.483c.015.641.132 1.539.347 2.686l1.086 3.494 1.152 5.637c.145.706.281 2.896-.91 5.065-1.516 2.754-4.284 9.52-3.956 12.849-.58 1.381-.488.75-1.241-.416-1.238-1.917-1.611-3.724-2.85-5.64-.63-.976-.667-2.182-.369-3.315M193.837 125.978l-2.027-6.756-.534-1.858c-.089-.31-.016-.753-.28-1.073-.301-.364-.721-3.59-.994-3.497l-10.575 3.578c-1.609.544-2.655.542-3.486.57-2.324.183-4.16-6.496-1.37-8.295.337-.217 1.394-.268 1.593-.012l.461.6c.218.103.673.429 1.196.398l1.763-.606 9.288-3.189c2.74-.94 3.338-.862 3.665.442l1.192 4.75-.985.339c-.498.17-.224 1.22-.037 1.672l.608 1.472.829 1.692 2.603 5.238.61 1.524c.695 1.739-.538 5.088-1.796 5.52-.402.138-1.348.52-1.576.158l.097-1.31c.035-.462-.12-.924-.245-1.361M241.33 97.603l-4.714-4.782-1.275-1.325c-.212-.221-.334-.616-.711-.776-.429-.182-2.181-2.682-2.39-2.497l-8.11 7.15c-1.233 1.088-2.187 1.5-2.931 1.853-2.039 1.073-6.546-3.723-4.77-6.315.214-.313 1.155-.775 1.447-.639l.674.314c.242 0 .795.087 1.258-.145l1.348-1.2 7.103-6.318c2.094-1.864 2.674-2.036 3.525-1.088l3.102 3.456-.753.669c-.38.34.315 1.098.676 1.398l1.179.975 1.474 1.071 4.594 3.298 1.203 1.02c1.371 1.161 1.67 4.42.709 5.275-.307.273-1.006.965-1.368.756l-.467-1.121c-.166-.397-.502-.717-.802-1.03M229.908 108.328l-4.19-4.355c-.815-.847-1.53-1.695-1.193-2.474 1.603-3.71 2.27-2.048 2.874-1.403l4.068 4.335.16.165c.672.7 1.039 1.492 1.1 2.378.06.885-.014 1.54-.542 2.249-1.413 1.257-1.383.356-2.277-.895M167.53 131.728l-.545-6.914-.126-1.895c-.02-.316.146-.709-.046-1.086-.218-.429.062-3.57-.227-3.563l-11.163.255c-1.698.039-2.726-.27-3.549-.486-2.325-.509-2.696-7.295.431-8.163.378-.105 1.429.157 1.569.458l.324.697c.193.16.57.598 1.09.722l1.864-.051 9.814-.268c2.895-.079 3.467.17 3.51 1.485l.152 4.794-1.04.03c-.527.013-.483 1.076-.396 1.553l.282 1.555.452 1.826 1.436 5.662.272 1.605c.311 1.83-1.619 4.604-2.948 4.64-.425.013-1.437.094-1.584-.313l.376-1.196c.134-.423.081-.9.052-1.347M151.37 132.604l-.414-6.228c-.08-1.21-.08-2.357.704-2.748 3.734-1.864 3.155-.109 3.204.803l.33 6.131.016.237c.066 1-.171 1.87-.713 2.61-.54.74-1.034 1.208-1.923 1.417-1.953.053-1.33-.639-1.204-2.222M84.531 117.002l3.07-8.128c1.055-2.792 1.057-4.083 3.694-4.15l-.587-.29c-2.134-1.061-1.425-2.973-.388-4.798 2.786-4.9 2.397-1.353 4.959-.079l1.037.515 9.696 4.747c1.928.944 2.58 2.362 2.075 3.74l-1.351 3.683-.767-.38c-.488-.018-.987.012-1.208.347-1.704 2.59-.08 12.429-4.405 13.588-.955.255-1.974.115-3.056-.424-.45-.224-.637-.499-.558-.825.282-.197.499-.363.652-.498.153-.134.369-.344.645-.628.272-.37.44-.597.503-.677l.202-.575.192-.495 2.126-6.287.278-.79c.278-.791 2.662-3.715.255-4.911l-7.107-3.532c-1.172-.583-2.088.03-2.718 1.853l-2.977 8.626c-.414 1.199-1.103 1.98-2.047 2.355-.944.374-1.972.285-3.084-.268-.18-.09-.303-.193-.368-.31l-.04-.188c.055-.056.101-.111.137-.164.036-.052.193-.17.47-.356.277-.186.5-.419.67-.7M123.314 130.308l1.087-6.529.319-1.784c.053-.297.288-.622.205-1.016-.094-.448.863-3.291.607-3.352l-9.895-2.36c-1.505-.36-2.341-.884-3.017-1.276-1.933-1.011-.723-7.382 2.23-7.457.357-.013 1.223.477 1.278.789l.128.72c.134.193.366.686.797.922l1.654.387 8.71 2.035c2.568.6 3.016.963 2.755 2.191l-.952 4.474-.923-.215c-.468-.11-.67.884-.7 1.346l-.104 1.505-.016 1.797-.017 5.576-.124 1.55c-.14 1.766-2.47 3.885-3.65 3.61-.377-.09-1.287-.248-1.325-.658l.603-1.02c.214-.362.275-.816.35-1.235M108.876 127.36l1.046-5.864c.204-1.14.463-2.2 1.243-2.38 3.713-.857 2.805.634 2.642 1.489l-1.099 5.753-.04.223c-.167.942-.574 1.692-1.219 2.25-.644.56-1.185.879-2.016.865-1.733-.404-1.027-.9-.557-2.336M56.282 92.393c.37-.451 2.88-2.488 4.753-4.268a92.75 92.75 0 011.625-1.48c1.224-1.077 1.522-.967.214-2.373l-6.193-6.656c-.908-.976-2.091-2.125-2.322-2.91-.23-.785-.02-1.51.632-2.172 2.076-2.11 4.783-3.773 5.622-2.865.177.19.992 1.025.868 1.292l-.376.814c-.183.395.538 1.11 1.258 1.906l8.194 9.08c.605.67.311 2.431-.2 2.952-.814.828-.597 1.191-1.411 2.019-.522.53-.459.748-1.257.554l-.502-.123c-.419-.102-.824-.452-1.517-.335-.291.05-.61.18-.963.354-.354.174-.545.578-.826.933l-.283.357-5.53 6.424-.317.322c-.739.751-1.658 1.06-2.757.927-1.1-.134-1.346-.355-2.133-1.178-.269-.282-.314-.583-.135-.904 1.362-.706 2.554-1.516 3.556-2.67M14.92 51.533l5.117-2.196 1.61 2.025c.23.29.591.421 1.083.396.492-.025.94-.19 1.346-.498l.512-.387 1-1.512.768-.581c3.508-2.659 5.023-1.228 4.771-2.45-.171-.834-.562-.607-.449-1.37.179-1.209 7.491-4.741 8.72-2.406.094.16.025.397-.206.707-.232.31-.349.583-.35.816a2.17 2.17 0 00.047.544l.508.832 5.85 7.118c1.937 2.356.4 5.459-2.386 7.667l-11.26 8.932c-.356.282-.9.362-1.61.263-.71-.1-1.417-.463-2.12-1.089l11.264-8.412c.514-.384.816-.918.913-1.59a2.268 2.268 0 00-.486-1.804l-4.325-5.44c-2.458-3.093-3.18-2.813-5.993-.682l-.64.485-.456.52-1.845 2.383c-.25.323-.519.605-.768.871-.25.266-.545.529-.885.787-1.109.84-2.275 1.317-3.497 1.433-1.223.115-2.026-.07-2.41-.551l-3.823-4.81zM47.653 66.853l-1.089-1.978c-.288-.524-.032-.507.122-1.168.327-1.406 4.116-4.318 5.134-3.098.676 1.723-.022 1.725.514 2.484l1.273 1.806c.502.711.517 1.526.178 2.43-.331.88-.98 1.677-2.017 2.366-1.738 1.153-3.825 2.82-5.785 3.471-.693.23-3.16-3.24.59-3.955.036.013.182-.03.437-.118s.455-.133.562-.202c.988-.627.667-1.154.08-2.038M75.161 109.527l5.224-6.872c1.2-1.58.772-2.626-.695-3.68l-7.468-5.363c-1.012-.727-1.6-1.471-1.764-2.23-.164-.76.902-2.616 1.556-3.527 3.076-4.283 3.08-1.274 5.126.195l8.387 6.025c.405.29.752.676 1.04 1.156.288.48.528 1.074.644 1.787.13.813-.294 1.966-.67 2.572l-1.446 2.334c-2.859 4.614-3.833 7.207-7.747 11.107-.63.628-1.125 1.152-1.821 1.294a2.37 2.37 0 01-1.535-.199c-1.052-.503.534-3.763 1.17-4.6" fill-rule="evenodd"/><path d="M122.987 44.538a1.201 1.201 0 001.78 1.61 28.603 28.603 0 019.569-6.949 28.182 28.182 0 0111.499-2.436c4.096 0 7.987.871 11.499 2.436a28.608 28.608 0 019.568 6.95 1.201 1.201 0 001.78-1.611 31.011 31.011 0 00-10.368-7.533 30.585 30.585 0 00-12.48-2.653c-4.43 0-8.654.948-12.478 2.653a31.007 31.007 0 00-10.37 7.533zm53.268 15.784a1.203 1.203 0 00-2.374.377 28.457 28.457 0 01.349 4.46c0 7.819-3.19 14.918-8.334 20.062-5.144 5.144-12.242 8.333-20.061 8.333-7.82 0-14.918-3.19-20.062-8.333-5.144-5.144-8.333-12.243-8.333-20.062a28.594 28.594 0 01.348-4.46 1.202 1.202 0 00-2.374-.377c-.13.817-.227 1.621-.29 2.41a31.09 31.09 0 00-.096 2.427c0 8.484 3.46 16.187 9.04 21.767 5.58 5.58 13.282 9.04 21.766 9.04 8.485 0 16.188-3.46 21.768-9.04 5.58-5.58 9.04-13.283 9.04-21.767a30.76 30.76 0 00-.387-4.837"/><path d="M240.594 79.804c2.812-.327 6.777.47 9.554 1.02 3.726.74 6.416 1.483 9.55 3.63 2.355 1.615 9.492 8.507 11.873 11.687 1.882 2.516 9.655 8.984 4.475 7.608-6.08-1.616-20.327-22.24-22.395-18.318-.43.817 1.052 1.938 1.7 2.635 1.077 1.163 2.557 2.29 3.468 3.532 2.125 2.896 5.675 7.67 7.723 10.623 1.345 1.938 3.422 5.252 5.143 6.868 1.266 1.189 2.9 2.383 4.503 3.052 9.243 3.855 15.643-4.724 11.395-13.032-.4-.781-.338-1.844.046-2.633.27-.554.671-1.347 1.11-1.78.955-.94 7.396 17.6-4.393 21.122a17.54 17.54 0 01-5.976.697c-5.07-.29-6.573-1.59-9.857-5.108-.828-.888-2.217-4.165-2.893-3.156-1.412 2.11-1.501 3.932-2.25 6.358-2.588 8.377-11.084 17.893-22.957 13.275-2.42-.941-6.29-4.774-6.722-7.45-.122-.755.052-5.59.492-5.514.48.084.822.618.997 1.074.57 1.49.432 1.69 1.054 3.159.61 1.442 1.288 2.97 2.47 4 3.383 2.952 10.648 1.658 14.444-.168a12.529 12.529 0 004.148-3.23c1.171-1.404 4.649-7.704 4.766-9.505.151-2.313.235-4.647.002-6.953-.172-1.708-.536-3.428-1.209-5.008-.777-1.828-2.715-3.096-3.896-4.693-1.057-1.43-2.208-2.829-3.594-3.941-1.138-.913-3.381-3.081-4.807-3.389-.387-.083-.51.801-.315 1.145 3.65 6.415 8.202 10.01 6.625 18.34-.88 4.642-5.636 8.705-10.66 7.593-.614-.136-.372-1.454.086-1.884.866-.811 2.275-.73 3.312-1.305 1.108-.613 1.762-.83 2.538-1.83.806-1.037 1.013-2.785 1.361-4.052 1.468-5.35-3.316-11.115-5.267-15.504-.8-1.802-2.807-3.459-4.206-4.848-.597-.592-1.076-1.268-1.385-2.051-.195-.497-.585-2.004-.054-2.066" fill-rule="evenodd"/><path d="M266.073 113.27c-1.336.724-.652 3.196-.402 4.695.205 1.229.73 2.403 1.341 3.488.61 1.084 1.402 2.073 2.28 2.951.615.615 1.303 1.274 2.147 1.476.448.108 1.09-.226 1.208-.67.331-1.254-.2-2.826-.94-3.891-1.35-1.947-1.69-3.515-2.548-5.098-.68-1.253-1.832-3.63-3.086-2.951M51.735 80.706c-2.797-.44-6.79.196-9.588.635-3.753.59-6.47 1.223-9.688 3.243-2.418 1.518-9.827 8.117-12.334 11.2-1.982 2.437-10.01 8.587-4.778 7.42 6.14-1.37 21.206-21.404 23.115-17.402.397.834-1.13 1.895-1.804 2.565-1.124 1.118-2.648 2.185-3.608 3.39-2.24 2.808-5.98 7.436-8.145 10.303-1.422 1.883-3.63 5.11-5.414 6.655-1.313 1.137-2.994 2.265-4.623 2.869-9.39 3.48-15.44-5.349-10.861-13.48.43-.764.412-1.829.06-2.633-.247-.564-.617-1.373-1.038-1.822-.916-.98-8.098 17.288 3.54 21.281 1.896.65 3.938.97 5.943.937 5.078-.085 6.631-1.325 10.054-4.708.864-.853 2.384-4.071 3.018-3.036 1.326 2.165 1.342 3.989 1.993 6.443 2.249 8.474 10.355 18.324 22.404 14.188 2.457-.843 6.477-4.517 7.016-7.173.152-.75.173-5.588-.27-5.53-.483.065-.846.585-1.039 1.033-.63 1.465-.5 1.672-1.18 3.113-.669 1.418-1.407 2.917-2.628 3.9-3.5 2.812-10.708 1.226-14.426-.75a12.527 12.527 0 01-4.016-3.394c-1.113-1.45-4.335-7.886-4.38-9.69-.057-2.317-.047-4.653.278-6.947.24-1.7.673-3.404 1.409-4.956.85-1.795 2.837-2.984 4.082-4.532 1.114-1.386 2.32-2.738 3.75-3.794 1.173-.866 3.502-2.942 4.94-3.192.389-.067.476.82.267 1.156-3.904 6.263-8.597 9.671-7.356 18.059.692 4.673 5.28 8.925 10.346 8.016.618-.112.43-1.438-.011-1.886-.832-.846-2.244-.822-3.257-1.437-1.083-.658-1.727-.9-2.463-1.93-.764-1.07-.9-2.824-1.197-4.105-1.251-5.404 3.761-10.972 5.887-15.28.873-1.768 2.944-3.342 4.398-4.674.62-.568 1.127-1.224 1.466-1.994.216-.488.666-1.979.138-2.061" fill-rule="evenodd"/><path d="M24.93 113.12c1.306.776.522 3.218.212 4.707-.254 1.219-.827 2.37-1.48 3.43s-1.484 2.015-2.398 2.858c-.638.589-1.352 1.22-2.204 1.388-.451.09-1.08-.27-1.18-.718-.28-1.266.315-2.816 1.096-3.85 1.427-1.891 1.83-3.444 2.751-4.991.73-1.225 1.977-3.554 3.202-2.825M176.701 79.148c5.355.027 12.257 3.049 20.58 1.563 7.427-1.326 12.661-5.848 16.15-11.852 1.758-3.028 2.933-6.446 3.516-9.9.564-3.338.941-6.945-.13-10.158-.988-2.966-3.477-5.258-5.73-7.424-1.103-1.06-4.967-2.999-6.643-2.475-1.207.377-1.985 1.514-2.475 3.256-.2.71.374 1.578 0 2.214-.22.375-1.15.407-1.302 0-2.09-5.524 1.261-8.184 6.382-7.554 1.432.177 2.822.786 4.037 1.563a15.926 15.926 0 013.908 3.517c1.522 1.93 4.934 10.959 5.08 10.94 2.362-.301 4.168-8.08 10.42-9.247 1.95-.364 3.97.123 5.86.726 1.277.408 2.755 1.167 3.517 2.27.667.967.617 2.397.26 3.516-.346 1.086-1.335 1.88-2.214 2.605-.63.519-1.406.932-2.214 1.042-.304.041-.834-.405-.652-.651 1.062-1.432 5.672-4.145.616-6.302-4.123-1.76-7.343-.748-9.863 2.395-1.114 1.39-2.723 2.384-3.647 3.907-.726 1.198-.87 2.722-1.352 4.038-.823 2.248-1.579 4.456-2.555 6.642-1.022 2.287-2.245 4.481-3.256 6.773-.466 1.055-2.12 3.912-1.173 3.256 2.1-1.454 16.455-.39 14.197 1.302-1.74 1.305-4.353.13-6.512.391-1.8.218-3.563.682-5.34 1.042-1.219.247-2.512.276-3.647.782-2.115.943-3.915 2.49-5.991 3.516-1.713.847-3.475 1.673-5.34 2.084-3.907.861-10.386 1.263-14.327.782-2.363-.289-4.732-.85-6.903-1.824-1.294-.58-4.674-2.742-3.257-2.735M117.074 82.99c.417 1.138.436 2.39.496 3.601.064 1.282.119 2.589-.124 3.85-.218 1.131-.597 2.272-1.242 3.228-.51.755-1.349 1.237-2.11 1.738-.696.458-1.443.86-2.236 1.118-.574.186-3.432.767-3.849.123-.338-.522-.286-1.395.125-1.862 2.871-3.265 5.327-7.587 7.326-11.3.153-.284.436-.525.744-.62.28-.086.77-.15.87.124M119.861 85.462c.726-.804 2.111 1.506 2.552 2.495 1.392 3.122 4.018 4.758 5.215 7.698.11.27.41.812.124.87-3.336.667-7.957-4.233-8.32-6.457-.242-1.49-.441-3.642.43-4.606M112.976 84.48c-.946 2.12-6.435 4.88-8.443 5.96-.601.324-1.306.458-1.987.497-.79.045-1.616.021-2.36-.248-.668-.244-1.367-.634-1.738-1.242-.28-.46-.423-1.282 0-1.614 1.885-1.478 15.224-4.912 14.528-3.353" fill-rule="evenodd"/><path d="M223.436 37.38c-.886 1.46-1.746 2.942-2.456 4.494a9.505 9.505 0 00-.78 2.577c-.113.79-.153 1.627.06 2.396.107.381.455.747.84.839.549.13 1.244.122 1.677-.24.652-.545 1.043-1.395 1.258-2.216.336-1.28.31-2.632.36-3.955.05-1.337.048-2.68-.06-4.014-.014-.171-.13-.442-.3-.42-.266.036-.46.31-.599.54M116.095 79.358c-5.354.026-10.911 1.476-19.233-.013-7.428-1.326-12.662-5.848-16.15-11.852-1.76-3.028-2.934-6.447-3.517-9.9-.564-3.338-.94-6.945.13-10.158.989-2.966 3.477-5.258 5.731-7.424 1.103-1.06 4.966-2.999 6.643-2.475 1.206.377 1.984 1.514 2.474 3.256.2.71-.374 1.578 0 2.214.22.375 1.15.407 1.303 0 2.09-5.524-1.262-8.184-6.382-7.554-1.433.177-2.822.786-4.038 1.563a15.924 15.924 0 00-3.907 3.517c-1.523 1.93-4.935 10.959-5.08 10.94-2.363-.301-4.169-8.08-10.42-9.247-1.95-.364-3.97.123-5.86.726-1.278.408-2.756 1.167-3.517 2.27-.668.967-.618 2.397-.26 3.516.346 1.086 1.334 1.88 2.213 2.605.63.518 1.406.932 2.215 1.042.304.041.833-.405.65-.651-1.06-1.432-5.67-4.145-.615-6.302 4.123-1.76 7.344-.748 9.863 2.395 1.115 1.39 2.723 2.384 3.647 3.907.727 1.198.871 2.722 1.352 4.038.823 2.248 1.58 4.456 2.556 6.642 1.021 2.287 2.244 4.481 3.256 6.773.465 1.055 2.12 3.912 1.172 3.256-2.1-1.454-16.455-.39-14.197 1.303 1.74 1.304 4.354.13 6.513.39 1.8.218 3.562.681 5.34 1.042 1.218.247 2.511.276 3.646.782 2.115.943 3.916 2.49 5.992 3.516 1.713.847 3.474 1.673 5.34 2.084 4.315.951 15.308 2.037 19.699.068 1.293-.58 4.858-2.28 3.441-2.273" fill-rule="evenodd"/><path d="M70.706 36.018c.886 1.46 1.746 2.942 2.457 4.494.373.816.65 1.688.779 2.576.114.791.153 1.627-.06 2.397-.106.38-.455.747-.84.838-.549.131-1.244.123-1.677-.24-.651-.544-1.043-1.394-1.258-2.216-.336-1.28-.31-2.632-.36-3.954-.05-1.337-.047-2.68.06-4.014.014-.171.13-.442.3-.42.266.035.46.31.6.54" fill-rule="evenodd"/></g></svg>
