<svg width="53" height="48" viewBox="0 0 53 48" fill="none" xmlns="http://www.w3.org/2000/svg">
<path d="M50.3283 36.4027C50.0202 36.0103 49.5499 35.78 49.0505 35.78H4.72857C4.22915 35.78 3.75892 36.0103 3.45083 36.4027C3.14275 36.7983 3.03573 37.3107 3.15572 37.7939L5.3188 46.443C5.50041 47.1662 6.149 47.6721 6.89165 47.6721H46.8875C47.6301 47.6721 48.2787 47.1662 48.4603 46.443L50.6234 37.7939C50.7434 37.3107 50.6331 36.7951 50.3283 36.4027V36.4027Z" fill="#D38FFF"/>
<path d="M26.8879 14.1589C25.6945 14.1589 24.7249 13.1925 24.7249 11.9959V7.67296C24.7249 6.47954 25.6945 5.50989 26.8879 5.50989C28.0813 5.50989 29.051 6.4763 29.051 7.67296V11.9959C29.051 13.1925 28.0813 14.1589 26.8879 14.1589Z" fill="#EFD5FF"/>
<path d="M26.8881 8.75287C29.2756 8.75287 31.211 6.81744 31.211 4.42996C31.211 2.04249 29.2756 0.107056 26.8881 0.107056C24.5006 0.107056 22.5652 2.04249 22.5652 4.42996C22.5652 6.81744 24.5006 8.75287 26.8881 8.75287Z" fill="#EFD5FF"/>
<path d="M27.0404 10.9159C15.1483 10.7862 4.83561 20.1681 3.21411 31.9953H50.3023C48.7035 20.3854 38.7573 11.0456 27.0404 10.9159V10.9159ZM41.4165 30.5262C40.5312 30.5262 39.795 29.7901 39.8177 28.9048C39.8599 23.823 35.7964 19.6525 30.7147 19.6071C29.8293 19.5844 29.1159 18.8709 29.1159 17.9629C29.1386 17.0776 29.8715 16.3414 30.7601 16.3641C37.6125 16.429 43.1256 22.0718 43.0607 28.9242C43.038 29.8322 42.3019 30.5457 41.4165 30.5262V30.5262Z" fill="#EFD5FF"/>
<path d="M50.6689 35.2384H3.10717C1.9105 35.2384 0.944092 36.2048 0.944092 37.4015C0.944092 38.5949 1.91375 39.5646 3.10717 39.5646H50.6721C51.8655 39.5646 52.8352 38.5981 52.8352 37.4015C52.8319 36.2048 51.8655 35.2384 50.6689 35.2384Z" fill="#D38FFF"/>
</svg>
