<svg width="53" height="53" viewBox="0 0 53 53" fill="none" xmlns="http://www.w3.org/2000/svg">
<path d="M52.8317 26.8878C52.8317 12.5765 41.1991 0.943848 26.8878 0.943848C12.5765 0.943848 0.943848 12.5765 0.943848 26.8878C0.943848 41.1991 12.5765 52.8317 26.8878 52.8317C31.8171 52.8317 36.5292 51.4469 40.6381 48.8331C41.4585 49.1347 42.3471 49.3098 43.2552 49.3098C45.2431 49.3098 47.1046 48.5315 48.4861 47.1273C49.8903 45.7425 50.6686 43.8616 50.6686 41.8963C50.6686 40.7516 50.4092 39.6684 49.9325 38.676C51.8166 35.0374 52.8317 30.9966 52.8317 26.8878V26.8878ZM36.6167 16.0789C39.6003 16.0789 42.0228 18.5014 42.0228 21.4849C42.0228 22.3703 41.2867 23.1064 40.4013 23.1064C39.516 23.1064 38.7798 22.3703 38.7798 21.4849C38.7798 20.2948 37.8069 19.3219 36.6167 19.3219C35.4266 19.3219 34.4537 20.2948 34.4537 21.4849C34.4537 22.3703 33.7175 23.1064 32.8322 23.1064C31.9468 23.1064 31.2107 22.3703 31.2107 21.4849C31.2107 18.4982 33.6332 16.0789 36.6167 16.0789ZM17.1588 16.0789C20.1424 16.0789 22.5649 18.5014 22.5649 21.4849C22.5649 22.3703 21.8287 23.1064 20.9434 23.1064C20.058 23.1064 19.3219 22.3703 19.3219 21.4849C19.3219 20.2948 18.349 19.3219 17.1588 19.3219C15.9686 19.3219 14.9957 20.2948 14.9957 21.4849C14.9957 22.3703 14.2596 23.1064 13.3742 23.1064C12.4889 23.1064 11.7527 22.3703 11.7527 21.4849C11.7527 18.4982 14.1752 16.0789 17.1588 16.0789ZM39.3636 42.3471C38.2382 43.2973 36.9864 44.121 35.6666 44.7696C32.9424 46.1317 29.894 46.8873 26.6737 46.8873C17.8528 46.8873 10.1572 41.2218 7.51739 32.7706C7.17039 31.6258 7.81899 30.4129 8.94431 30.0692C10.0891 29.7027 11.302 30.3513 11.6457 31.4961C13.7212 38.1118 19.7532 42.5644 26.6705 42.5644C29.5892 42.5644 32.3555 41.7861 34.7131 40.3592C34.8655 40.2716 35.0147 40.1873 35.1444 40.0997C35.1671 40.077 35.1866 40.077 35.2093 40.0576C37.6967 38.4361 39.7073 36.1433 40.9591 33.3543C41.2413 32.7706 41.478 32.1447 41.6726 31.4961C42.039 30.3513 43.2519 29.7027 44.3967 30.0692C45.522 30.4162 46.1706 31.6258 45.8009 32.7706C45.7133 33.0722 45.6063 33.3543 45.4993 33.6364C44.9804 35.1055 44.2897 36.4903 43.4659 37.7453L45.4344 39.7138C46.0182 40.2975 46.3425 41.0759 46.3425 41.8963C46.3425 42.7168 46.0182 43.4757 45.4344 44.0789C44.8507 44.6626 44.0724 44.9869 43.2519 44.9869C42.4314 44.9869 41.6531 44.6626 41.0694 44.0562L39.3636 42.3471Z" fill="#FFDE7A"/>
</svg>
